<svg version="1.1" id="Layer_1" xmlns="http://www.w3.org/2000/svg" xmlns:xlink="http://www.w3.org/1999/xlink" x="0px" y="0px"
	 width="100%" viewBox="0 0 1286 1198" enable-background="new 0 0 1286 1198" xml:space="preserve">
<path fill="none" opacity="0" stroke="none" 
	d="
M1.000000,1195.000000 
	C1.000000,797.043518 1.000000,399.087067 1.000000,1.065297 
	C429.576233,1.065297 858.152527,1.065297 1287.000000,1.065297 
	C1287.000000,398.699341 1287.000000,796.398743 1286.549072,1194.548096 
	C857.732117,1194.998779 429.366058,1194.999390 1.000000,1195.000000 
M762.187500,816.102905 
	C761.508606,820.919739 763.842468,822.120850 768.300171,821.841736 
	C774.274414,821.467773 780.298706,821.427368 786.276550,821.732178 
	C790.563660,821.950806 792.284607,820.730774 792.176697,816.189819 
	C791.919556,805.364075 791.895203,794.523560 792.139343,783.697205 
	C792.520203,766.808350 788.877991,769.656982 807.192017,769.440918 
	C810.433289,769.402649 812.336914,770.717285 813.866455,773.575928 
	C821.946289,788.676880 830.139465,803.718567 838.488159,818.672058 
	C839.294922,820.117065 841.411499,821.671570 842.965454,821.719971 
	C851.941345,821.999573 860.931213,821.866882 869.915405,821.782166 
	C870.600647,821.775635 871.279114,821.060486 872.215759,820.530396 
	C871.564270,818.778503 871.157593,817.155396 870.396606,815.720093 
	C862.601868,801.018921 854.746948,786.349792 846.914673,771.668518 
	C843.046265,764.417236 842.670044,765.645142 849.573425,761.030334 
	C872.605347,745.633728 875.390503,712.038025 855.383728,692.851074 
	C844.934814,682.830383 832.040466,679.706787 818.253113,679.628235 
	C803.265381,679.542847 788.274841,680.261414 773.283264,680.452576 
	C762.471802,680.590454 762.478088,680.461304 762.455750,691.261658 
	C762.370178,732.587708 762.278992,773.913757 762.187500,816.102905 
M644.461609,790.245911 
	C647.291382,790.309998 650.131348,790.556396 652.948608,790.397888 
	C657.802490,790.124695 659.920532,792.429260 661.156982,797.026489 
	C663.052673,804.075195 665.537598,810.992554 668.247131,817.776123 
	C668.920776,819.462585 671.352478,821.436157 673.082336,821.542053 
	C681.045959,822.029358 689.046936,821.934326 697.034912,821.984070 
	C701.803955,822.013794 702.506104,821.039185 700.933167,816.705566 
	C698.663635,810.453064 696.362000,804.212158 694.045044,797.977112 
	C679.975952,760.116211 665.851379,722.275818 651.906555,684.369263 
	C650.687744,681.056152 648.818604,680.021606 645.638977,680.089905 
	C636.987549,680.275696 628.333801,680.492676 619.682129,680.452393 
	C616.414978,680.437195 615.074097,681.904907 614.026794,684.801086 
	C604.362061,711.527405 594.570007,738.207703 584.796692,764.894714 
	C578.565979,781.908264 572.258118,798.893738 566.085999,815.928406 
	C564.311829,820.824890 565.150330,821.926208 570.310669,821.916687 
	C577.636292,821.903198 584.962891,821.630615 592.286560,821.707642 
	C595.732849,821.743774 597.283997,820.231567 598.266968,817.051086 
	C600.425415,810.067261 603.156738,803.257874 605.235840,796.253113 
	C606.615112,791.606262 609.306824,790.008545 614.001099,790.126099 
	C623.819946,790.372009 633.648682,790.221191 644.461609,790.245911 
M503.153137,712.501648 
	C503.134277,703.178711 503.053253,693.855286 503.130890,684.533142 
	C503.157349,681.356506 502.143463,680.175110 498.724243,680.316345 
	C491.578247,680.611572 484.365906,680.868164 477.267365,680.208740 
	C472.328491,679.749939 471.344879,681.240845 471.370239,685.801270 
	C471.543335,716.933228 471.511078,748.066650 471.464844,779.199402 
	C471.450439,788.901245 465.952881,795.676025 457.103210,796.623108 
	C450.507385,797.329041 442.364105,795.171204 440.203857,784.132812 
	C439.496246,780.517151 437.562622,779.641479 434.207977,779.937073 
	C426.919586,780.579163 419.614899,781.065918 412.308441,781.459351 
	C409.485626,781.611389 408.363739,782.921997 408.719147,785.581238 
	C409.070770,788.212097 409.230194,790.932739 410.045593,793.427124 
	C415.252533,809.355591 426.005096,819.208008 442.606720,822.229492 
	C454.767883,824.442749 466.932007,824.472595 478.233185,818.821716 
	C495.346985,810.264343 502.711029,795.497925 502.949066,776.931519 
	C503.220032,755.790771 503.105927,734.645142 503.153137,712.501648 
M576.806396,295.274109 
	C581.518616,290.173737 586.400757,285.217560 590.888428,279.926727 
	C594.387329,275.801636 597.743408,276.485229 601.030396,279.657043 
	C605.404846,283.878265 609.687683,288.224945 613.679260,292.805847 
	C621.015686,301.225525 628.114746,309.852203 635.304565,318.399506 
	C638.464722,322.156311 641.126099,326.514191 644.856689,329.570587 
	C651.934753,335.369568 658.503357,341.359619 662.274597,349.935974 
	C662.897400,351.352203 664.236755,353.105530 665.567505,353.447266 
	C671.957092,355.088257 674.174255,360.179260 676.373718,365.447266 
	C676.860413,366.613068 677.414673,368.278015 678.353577,368.642731 
	C684.744141,371.124908 685.718018,376.547119 686.023987,382.276764 
	C687.018005,400.891235 684.257751,419.469574 685.814453,438.147675 
	C686.501343,446.390045 684.697693,454.836029 684.073853,463.193207 
	C683.752075,467.504333 683.515381,471.822357 683.300720,476.140259 
	C683.269836,476.760986 683.604980,477.393829 683.728210,478.029297 
	C684.506287,482.043121 685.853455,486.047302 685.936340,490.076813 
	C686.215637,503.661072 686.045593,517.254578 686.044800,530.844543 
	C686.044189,540.932007 686.042480,551.019531 686.035889,561.106995 
	C686.030396,569.528687 686.023132,577.950317 685.995056,586.371948 
	C685.992920,587.027039 685.817200,587.681091 685.727539,588.336365 
	C685.176392,592.369507 684.087524,596.417236 684.194763,600.432922 
	C684.387390,607.647949 686.580139,610.396973 693.680420,611.188416 
	C702.578064,612.180176 711.583191,612.365662 720.548828,612.533447 
	C726.771423,612.649780 733.005737,612.153870 739.234436,611.923035 
	C747.197815,611.627930 755.159790,611.107300 763.124390,611.065735 
	C785.454895,610.949158 807.786560,611.030945 830.117737,611.028748 
	C833.541443,611.028381 837.179626,611.696777 840.313599,610.735535 
	C842.409424,610.092651 845.203247,607.150208 845.254822,605.173462 
	C845.549988,593.845032 844.978271,582.497925 844.957825,571.156677 
	C844.889343,533.068848 844.926697,494.980774 844.928772,456.892792 
	C844.930115,431.228027 844.936890,405.563263 844.950867,379.898499 
	C844.952576,376.733582 844.685303,373.523529 845.112671,370.412720 
	C846.149597,362.863525 843.819031,356.049255 839.221130,350.646423 
	C833.162964,343.527649 825.893005,337.450073 819.278870,330.790863 
	C814.811157,326.292633 810.938599,321.132782 806.120544,317.075562 
	C802.359985,313.908813 801.248596,307.748627 795.032043,307.244873 
	C794.227295,307.179657 793.631348,305.182983 792.841064,304.156097 
	C791.253662,302.093506 789.797546,299.874451 787.930664,298.093872 
	C784.005554,294.350067 777.915039,291.586975 776.197144,287.090363 
	C772.752747,278.074829 763.506104,275.544464 758.600403,268.287872 
	C754.496399,262.217316 748.110352,257.707916 742.846130,252.396805 
	C739.352722,248.872375 736.115784,245.094330 732.640076,241.551407 
	C731.306702,240.192200 729.228943,239.451950 728.173035,237.949783 
	C721.383057,228.290359 712.333313,220.871918 703.760254,212.984375 
	C702.703369,212.012009 701.208984,211.481949 699.864563,210.861160 
	C694.483887,208.376465 689.089233,208.335907 683.068542,208.687027 
	C672.523682,209.302032 661.855957,207.340042 651.231628,207.227051 
	C644.050598,207.150665 636.864746,208.791534 629.664673,208.958755 
	C616.506042,209.264359 603.316040,208.634354 590.178955,209.247925 
	C584.806824,209.498840 578.072510,209.673218 576.881775,217.600723 
	C576.797668,218.160095 576.195984,218.691971 575.738403,219.137314 
	C570.402466,224.330627 565.031799,229.488251 559.702942,234.688797 
	C554.308228,239.953613 548.903625,245.210037 543.607910,250.573395 
	C542.246155,251.952591 541.471436,253.917160 540.092712,255.272781 
	C535.897766,259.397522 531.492126,263.307159 527.259033,267.394257 
	C523.640991,270.887451 520.153137,274.515198 516.591492,278.067291 
	C516.251221,278.406616 515.725830,278.566772 515.405334,278.918518 
	C510.145050,284.691498 505.048615,290.622253 499.615173,296.226471 
	C494.768890,301.225128 488.771484,305.296265 484.734650,310.835358 
	C481.075104,315.856750 476.988739,319.981720 472.088074,323.571045 
	C470.360352,324.836456 468.831787,326.409088 467.357025,327.977539 
	C464.042847,331.502197 461.116791,335.453491 457.492554,338.611145 
	C451.270020,344.032593 446.069275,349.842255 446.052460,358.663452 
	C446.011597,380.113770 446.193512,401.566101 445.940002,423.013580 
	C445.852966,430.375916 444.304718,437.721863 444.232758,445.083191 
	C444.175629,450.928162 445.762085,456.778107 445.862122,462.638794 
	C445.958984,468.314911 448.905884,469.015076 453.576447,469.041473 
	C463.872223,469.099701 474.169342,469.527985 484.456787,470.003540 
	C486.815125,470.112579 489.360352,471.916016 491.433044,471.396790 
	C497.735901,469.817810 500.932678,464.839111 500.942383,457.955658 
	C500.950928,451.869476 501.030945,445.781250 500.908020,439.697388 
	C500.642761,426.568939 500.294373,413.441956 499.916748,400.316162 
	C499.831177,397.342285 499.405487,394.379303 499.280487,391.405243 
	C499.030243,385.452026 498.457642,379.225037 502.456848,374.268646 
	C508.289490,367.039978 514.342529,359.944855 520.797424,353.272461 
	C531.849243,341.848297 543.407410,330.915192 554.516663,319.545013 
	C562.028320,311.856934 569.135010,303.773132 576.806396,295.274109 
M614.268860,489.499725 
	C614.254333,463.175568 614.131042,436.850586 614.322876,410.527924 
	C614.358521,405.632996 612.681274,404.040985 607.959778,404.165405 
	C596.137634,404.476898 584.306641,404.583435 572.480103,404.542206 
	C565.911133,404.519287 565.936096,404.311462 565.939575,410.968994 
	C565.958496,447.291504 565.980652,483.614014 565.963257,519.936523 
	C565.959106,528.652344 564.654358,537.045837 561.307495,545.272888 
	C552.986206,565.727783 527.666809,568.152222 513.534180,559.360046 
	C505.390320,554.293640 501.166687,546.300476 500.000793,537.563843 
	C498.315887,524.938232 498.335449,512.074890 497.842926,499.304779 
	C497.587738,492.687622 497.545624,492.411163 490.669220,492.462585 
	C480.342590,492.539795 470.016022,492.638947 459.689880,492.766479 
	C446.854645,492.925018 447.855682,491.040466 448.194519,504.619690 
	C448.542999,518.584045 447.467621,532.941528 450.347626,546.414612 
	C457.515686,579.948303 482.003693,602.751526 515.092651,609.582703 
	C566.134644,620.120178 613.753296,580.624695 614.251831,528.488220 
	C614.372864,515.826477 614.266479,503.162659 614.268860,489.499725 
M612.889648,382.285370 
	C613.335083,381.458099 614.164124,380.633026 614.168823,379.803253 
	C614.249817,365.477448 614.191467,351.150909 614.260071,336.824982 
	C614.275452,333.617737 612.518921,332.884491 609.813354,332.889954 
	C596.653870,332.916595 583.494263,332.940063 570.335022,332.882263 
	C567.489624,332.869781 565.941345,333.817688 565.952271,336.891571 
	C566.002014,350.885162 565.994263,364.879028 565.984009,378.872772 
	C565.982117,381.426117 566.762390,382.901978 569.731934,382.866669 
	C583.882935,382.698486 598.035645,382.667908 612.889648,382.285370 
z"/>
<path fill="none" opacity="0" stroke="none" 
	d="
M1.000000,1195.499023 
	C429.366058,1194.999390 857.732117,1194.998779 1286.549072,1194.999023 
	C1287.000000,1196.332764 1287.000000,1197.665649 1287.000000,1198.998535 
	C858.333313,1198.998535 429.666656,1198.998535 1.000000,1198.997803 
	C1.000000,1197.997314 1.000000,1196.997681 1.000000,1195.499023 
z"/>
<path fill="#2A2F40" opacity="1.000000" stroke="none" 
	d="
M762.188721,815.671387 
	C762.278992,773.913757 762.370178,732.587708 762.455750,691.261658 
	C762.478088,680.461304 762.471802,680.590454 773.283264,680.452576 
	C788.274841,680.261414 803.265381,679.542847 818.253113,679.628235 
	C832.040466,679.706787 844.934814,682.830383 855.383728,692.851074 
	C875.390503,712.038025 872.605347,745.633728 849.573425,761.030334 
	C842.670044,765.645142 843.046265,764.417236 846.914673,771.668518 
	C854.746948,786.349792 862.601868,801.018921 870.396606,815.720093 
	C871.157593,817.155396 871.564270,818.778503 872.215759,820.530396 
	C871.279114,821.060486 870.600647,821.775635 869.915405,821.782166 
	C860.931213,821.866882 851.941345,821.999573 842.965454,821.719971 
	C841.411499,821.671570 839.294922,820.117065 838.488159,818.672058 
	C830.139465,803.718567 821.946289,788.676880 813.866455,773.575928 
	C812.336914,770.717285 810.433289,769.402649 807.192017,769.440918 
	C788.877991,769.656982 792.520203,766.808350 792.139343,783.697205 
	C791.895203,794.523560 791.919556,805.364075 792.176697,816.189819 
	C792.284607,820.730774 790.563660,821.950806 786.276550,821.732178 
	C780.298706,821.427368 774.274414,821.467773 768.300171,821.841736 
	C763.842468,822.120850 761.508606,820.919739 762.188721,815.671387 
M836.921204,728.978394 
	C836.977234,727.816528 837.087341,726.654297 837.080872,725.492798 
	C837.018188,714.158325 833.981201,709.709351 822.871765,708.141479 
	C814.216431,706.919983 805.314209,707.504333 796.528931,707.120789 
	C792.968750,706.965332 791.882324,708.573364 791.921143,711.872803 
	C792.024902,720.685608 792.008118,729.500854 791.930725,738.314209 
	C791.903198,741.443237 793.081909,742.826782 796.354431,742.768982 
	C804.168457,742.631104 811.990417,742.879578 819.802124,742.687622 
	C829.501526,742.449219 834.606995,738.447083 836.921204,728.978394 
z"/>
<path fill="#2B2F3F" opacity="1.000000" stroke="none" 
	d="
M643.967529,790.239624 
	C633.648682,790.221191 623.819946,790.372009 614.001099,790.126099 
	C609.306824,790.008545 606.615112,791.606262 605.235840,796.253113 
	C603.156738,803.257874 600.425415,810.067261 598.266968,817.051086 
	C597.283997,820.231567 595.732849,821.743774 592.286560,821.707642 
	C584.962891,821.630615 577.636292,821.903198 570.310669,821.916687 
	C565.150330,821.926208 564.311829,820.824890 566.085999,815.928406 
	C572.258118,798.893738 578.565979,781.908264 584.796692,764.894714 
	C594.570007,738.207703 604.362061,711.527405 614.026794,684.801086 
	C615.074097,681.904907 616.414978,680.437195 619.682129,680.452393 
	C628.333801,680.492676 636.987549,680.275696 645.638977,680.089905 
	C648.818604,680.021606 650.687744,681.056152 651.906555,684.369263 
	C665.851379,722.275818 679.975952,760.116211 694.045044,797.977112 
	C696.362000,804.212158 698.663635,810.453064 700.933167,816.705566 
	C702.506104,821.039185 701.803955,822.013794 697.034912,821.984070 
	C689.046936,821.934326 681.045959,822.029358 673.082336,821.542053 
	C671.352478,821.436157 668.920776,819.462585 668.247131,817.776123 
	C665.537598,810.992554 663.052673,804.075195 661.156982,797.026489 
	C659.920532,792.429260 657.802490,790.124695 652.948608,790.397888 
	C650.131348,790.556396 647.291382,790.309998 643.967529,790.239624 
M616.411621,759.898132 
	C614.464844,765.856689 614.633240,766.067261 620.915039,766.022522 
	C629.244385,765.963257 637.575439,765.830750 645.902954,765.939941 
	C650.051819,765.994324 651.290100,764.793945 649.778809,760.585999 
	C644.719727,746.499878 639.941284,732.312927 635.010986,718.180115 
	C634.627930,717.082092 633.900452,716.104248 632.636414,713.801636 
	C627.008911,729.846313 621.864990,744.512024 616.411621,759.898132 
z"/>
<path fill="#2B2F3F" opacity="1.000000" stroke="none" 
	d="
M503.156158,713.001587 
	C503.105927,734.645142 503.220032,755.790771 502.949066,776.931519 
	C502.711029,795.497925 495.346985,810.264343 478.233185,818.821716 
	C466.932007,824.472595 454.767883,824.442749 442.606720,822.229492 
	C426.005096,819.208008 415.252533,809.355591 410.045593,793.427124 
	C409.230194,790.932739 409.070770,788.212097 408.719147,785.581238 
	C408.363739,782.921997 409.485626,781.611389 412.308441,781.459351 
	C419.614899,781.065918 426.919586,780.579163 434.207977,779.937073 
	C437.562622,779.641479 439.496246,780.517151 440.203857,784.132812 
	C442.364105,795.171204 450.507385,797.329041 457.103210,796.623108 
	C465.952881,795.676025 471.450439,788.901245 471.464844,779.199402 
	C471.511078,748.066650 471.543335,716.933228 471.370239,685.801270 
	C471.344879,681.240845 472.328491,679.749939 477.267365,680.208740 
	C484.365906,680.868164 491.578247,680.611572 498.724243,680.316345 
	C502.143463,680.175110 503.157349,681.356506 503.130890,684.533142 
	C503.053253,693.855286 503.134277,703.178711 503.156158,713.001587 
z"/>
<path fill="#EED6AC" opacity="1.000000" stroke="none" 
	d="
M576.614624,295.570251 
	C569.135010,303.773132 562.028320,311.856934 554.516663,319.545013 
	C543.407410,330.915192 531.849243,341.848297 520.797424,353.272461 
	C514.342529,359.944855 508.289490,367.039978 502.456848,374.268646 
	C498.457642,379.225037 499.030243,385.452026 499.280487,391.405243 
	C499.405487,394.379303 499.831177,397.342285 499.916748,400.316162 
	C500.294373,413.441956 500.642761,426.568939 500.908020,439.697388 
	C501.030945,445.781250 500.950928,451.869476 500.942383,457.955658 
	C500.932678,464.839111 497.735901,469.817810 491.433044,471.396790 
	C489.360352,471.916016 486.815125,470.112579 484.456787,470.003540 
	C474.169342,469.527985 463.872223,469.099701 453.576447,469.041473 
	C448.905884,469.015076 445.958984,468.314911 445.862122,462.638794 
	C445.762085,456.778107 444.175629,450.928162 444.232758,445.083191 
	C444.304718,437.721863 445.852966,430.375916 445.940002,423.013580 
	C446.193512,401.566101 446.011597,380.113770 446.052460,358.663452 
	C446.069275,349.842255 451.270020,344.032593 457.492554,338.611145 
	C461.116791,335.453491 464.042847,331.502197 467.357025,327.977539 
	C468.831787,326.409088 470.360352,324.836456 472.088074,323.571045 
	C476.988739,319.981720 481.075104,315.856750 484.734650,310.835358 
	C488.771484,305.296265 494.768890,301.225128 499.615173,296.226471 
	C505.048615,290.622253 510.145050,284.691498 515.405334,278.918518 
	C515.725830,278.566772 516.251221,278.406616 516.591492,278.067291 
	C520.153137,274.515198 523.640991,270.887451 527.259033,267.394257 
	C531.492126,263.307159 535.897766,259.397522 540.092712,255.272781 
	C541.471436,253.917160 542.246155,251.952591 543.607910,250.573395 
	C548.903625,245.210037 554.308228,239.953613 559.702942,234.688797 
	C565.031799,229.488251 570.402466,224.330627 575.738403,219.137314 
	C576.195984,218.691971 576.797668,218.160095 576.881775,217.600723 
	C578.072510,209.673218 584.806824,209.498840 590.178955,209.247925 
	C603.316040,208.634354 616.506042,209.264359 629.664673,208.958755 
	C636.864746,208.791534 644.050598,207.150665 651.231628,207.227051 
	C661.855957,207.340042 672.523682,209.302032 683.068542,208.687027 
	C689.089233,208.335907 694.483887,208.376465 699.864563,210.861160 
	C701.208984,211.481949 702.703369,212.012009 703.760254,212.984375 
	C712.333313,220.871918 721.383057,228.290359 728.173035,237.949783 
	C729.228943,239.451950 731.306702,240.192200 732.640076,241.551407 
	C736.115784,245.094330 739.352722,248.872375 742.846130,252.396805 
	C748.110352,257.707916 754.496399,262.217316 758.600403,268.287872 
	C763.506104,275.544464 772.752747,278.074829 776.197144,287.090363 
	C777.915039,291.586975 784.005554,294.350067 787.930664,298.093872 
	C789.797546,299.874451 791.253662,302.093506 792.841064,304.156097 
	C793.631348,305.182983 794.227295,307.179657 795.032043,307.244873 
	C801.248596,307.748627 802.359985,313.908813 806.120544,317.075562 
	C810.938599,321.132782 814.811157,326.292633 819.278870,330.790863 
	C825.893005,337.450073 833.162964,343.527649 839.221130,350.646423 
	C843.819031,356.049255 846.149597,362.863525 845.112671,370.412720 
	C844.685303,373.523529 844.952576,376.733582 844.950867,379.898499 
	C844.936890,405.563263 844.930115,431.228027 844.928772,456.892792 
	C844.926697,494.980774 844.889343,533.068848 844.957825,571.156677 
	C844.978271,582.497925 845.549988,593.845032 845.254822,605.173462 
	C845.203247,607.150208 842.409424,610.092651 840.313599,610.735535 
	C837.179626,611.696777 833.541443,611.028381 830.117737,611.028748 
	C807.786560,611.030945 785.454895,610.949158 763.124390,611.065735 
	C755.159790,611.107300 747.197815,611.627930 739.234436,611.923035 
	C733.005737,612.153870 726.771423,612.649780 720.548828,612.533447 
	C711.583191,612.365662 702.578064,612.180176 693.680420,611.188416 
	C686.580139,610.396973 684.387390,607.647949 684.194763,600.432922 
	C684.087524,596.417236 685.176392,592.369507 685.727539,588.336365 
	C685.817200,587.681091 685.992920,587.027039 685.995056,586.371948 
	C686.023132,577.950317 686.030396,569.528687 686.035889,561.106995 
	C686.042480,551.019531 686.044189,540.932007 686.044800,530.844543 
	C686.045593,517.254578 686.215637,503.661072 685.936340,490.076813 
	C685.853455,486.047302 684.506287,482.043121 683.728210,478.029297 
	C683.604980,477.393829 683.269836,476.760986 683.300720,476.140259 
	C683.515381,471.822357 683.752075,467.504333 684.073853,463.193207 
	C684.697693,454.836029 686.501343,446.390045 685.814453,438.147675 
	C684.257751,419.469574 687.018005,400.891235 686.023987,382.276764 
	C685.718018,376.547119 684.744141,371.124908 678.353577,368.642731 
	C677.414673,368.278015 676.860413,366.613068 676.373718,365.447266 
	C674.174255,360.179260 671.957092,355.088257 665.567505,353.447266 
	C664.236755,353.105530 662.897400,351.352203 662.274597,349.935974 
	C658.503357,341.359619 651.934753,335.369568 644.856689,329.570587 
	C641.126099,326.514191 638.464722,322.156311 635.304565,318.399506 
	C628.114746,309.852203 621.015686,301.225525 613.679260,292.805847 
	C609.687683,288.224945 605.404846,283.878265 601.030396,279.657043 
	C597.743408,276.485229 594.387329,275.801636 590.888428,279.926727 
	C586.400757,285.217560 581.518616,290.173737 576.614624,295.570251 
M453.349274,350.223083 
	C452.217041,351.809387 451.084808,353.395721 449.802368,355.833252 
	C449.528107,361.306244 449.000916,366.780212 449.021606,372.252106 
	C449.135803,402.496429 449.383545,432.740265 449.216492,463.566803 
	C448.881256,467.349060 451.634308,466.859161 453.898468,466.867706 
	C466.024933,466.913300 478.151672,466.936371 490.278168,466.914581 
	C496.731171,466.902954 497.085876,466.528625 497.087769,460.166656 
	C497.095428,434.252228 496.998474,408.337219 497.181366,382.424103 
	C497.207458,378.728058 498.558746,375.041351 499.923828,371.121918 
	C505.283051,365.716644 510.677490,360.345703 515.993225,354.898010 
	C523.961121,346.732391 531.880798,338.519623 539.808105,330.314484 
	C548.097290,321.734833 556.459412,313.223114 564.614380,304.517487 
	C568.643738,300.216064 572.278809,295.545349 576.503052,290.831970 
	C576.759521,290.643097 576.940979,290.398621 577.664185,289.822388 
	C583.178040,284.326508 588.763245,278.899597 594.172546,273.302734 
	C596.523071,270.870728 598.369263,270.583221 600.736816,273.273285 
	C604.008728,276.990936 607.539246,280.480896 611.156311,284.496613 
	C611.342712,284.765259 611.591187,284.950500 612.008972,285.730133 
	C616.235779,290.570709 620.367310,295.499207 624.721130,300.222687 
	C627.916199,303.689026 631.402893,306.886597 634.952454,310.069153 
	C634.952454,310.069153 634.782715,310.232147 634.825562,310.922363 
	C637.206787,313.632416 639.587952,316.342468 642.177917,319.476471 
	C642.372803,319.735840 642.621582,319.923859 643.013123,320.725220 
	C647.599670,325.608124 652.186218,330.491028 657.048157,335.824524 
	C657.567505,336.294403 658.086853,336.764252 658.769836,337.916992 
	C662.117920,341.667297 665.466064,345.417633 668.953308,349.842041 
	C672.844238,354.324799 676.404785,359.158539 680.704712,363.206879 
	C686.932007,369.069824 691.102417,375.472870 689.698181,384.423706 
	C689.622864,384.903992 689.741333,385.414673 689.709534,386.641479 
	C689.725220,387.129364 689.740906,387.617279 689.712708,388.503967 
	C689.712708,388.503967 689.759827,388.902435 689.712769,389.648987 
	C689.730713,390.147095 689.748657,390.645233 689.702820,391.924194 
	C689.720703,393.230347 689.738525,394.536469 689.714111,396.745453 
	C689.699585,398.551514 689.685059,400.357605 689.382812,402.892761 
	C689.623901,412.526978 689.864990,422.161163 690.140747,432.483887 
	C690.204590,433.168091 690.268433,433.852264 689.784546,434.912659 
	C689.746582,436.922729 689.708618,438.932800 689.640747,441.886169 
	C689.634827,456.250488 689.628967,470.614777 689.228333,485.684753 
	C689.238525,495.481537 689.248657,505.278290 689.140747,515.993591 
	C689.349792,527.332520 689.558838,538.671509 689.681885,550.753662 
	C689.711609,551.500244 689.741333,552.246765 689.668091,553.662109 
	C689.702393,554.110596 689.736694,554.559082 689.683228,555.751160 
	C689.712158,556.498108 689.741089,557.245117 689.667297,558.660217 
	C689.701904,559.108337 689.736450,559.556396 689.681641,560.937378 
	C689.557068,575.922302 689.432495,590.907166 689.233093,606.685303 
	C691.339661,607.455627 693.444397,608.892639 695.553040,608.898376 
	C741.705933,609.024048 787.859131,608.991516 834.012329,608.987244 
	C841.982117,608.986450 842.001221,608.982117 842.000488,601.114075 
	C841.993652,523.636841 841.863403,446.159149 842.155884,368.683014 
	C842.183838,361.267761 839.648926,356.170380 834.749695,351.233582 
	C816.352112,332.694855 798.152649,313.959747 779.823669,295.352722 
	C777.160461,292.649139 774.196594,290.241791 771.175415,287.045837 
	C767.890625,283.902039 764.605835,280.758240 761.193420,276.938690 
	C758.630920,273.983307 756.243164,270.851379 753.471130,268.107758 
	C746.823853,261.528717 739.996033,255.132141 733.058472,248.061127 
	C732.049500,247.034897 731.040527,246.008667 729.951904,244.294922 
	C727.725403,242.402985 725.498962,240.511063 723.218689,238.278519 
	C723.218689,238.278519 723.069580,237.967590 722.990295,237.283096 
	C717.714294,232.138474 712.438354,226.993866 706.992249,221.958191 
	C706.992249,221.958191 707.158203,221.837692 707.067200,221.175308 
	C705.767944,220.033066 704.468689,218.890808 702.845825,217.301071 
	C702.275269,216.842667 701.704773,216.384262 700.994202,215.190689 
	C698.917480,214.125275 696.845886,212.142731 694.763306,212.131149 
	C659.841675,211.936722 624.918335,211.921860 589.997253,212.154922 
	C587.960266,212.168518 585.939697,214.630966 583.398865,216.204849 
	C582.919006,216.780487 582.439148,217.356125 581.357666,218.195953 
	C580.501465,219.387772 579.645203,220.579590 578.974365,221.914459 
	C578.974365,221.914459 578.770325,221.799744 578.102417,221.924362 
	C570.937378,229.537766 563.772278,237.151169 556.277649,244.794205 
	C556.277649,244.794205 555.982605,244.943924 555.309570,245.025681 
	C554.521240,246.011566 553.732971,246.997437 552.800415,248.285217 
	C552.800415,248.285217 552.771057,248.618515 552.127319,248.850571 
	C551.344055,249.454590 550.475708,249.975296 549.789856,250.674866 
	C532.719055,268.086273 515.611938,285.462799 498.651611,302.981445 
	C494.420624,307.351685 490.674133,312.191071 486.334503,317.018188 
	C486.093201,317.182159 485.915924,317.398590 485.171844,317.868011 
	C484.373352,318.819580 483.574860,319.771118 482.796295,320.798553 
	C482.796295,320.798553 482.720001,320.780457 482.076965,320.916840 
	C474.919128,328.531158 467.761261,336.145477 460.273102,343.795135 
	C460.273102,343.795135 459.979523,343.950653 459.360992,344.192352 
	C457.560028,346.115662 455.759094,348.038971 454.000000,350.000000 
	C454.000000,350.000000 453.962280,349.958069 453.349274,350.223083 
z"/>
<path fill="#3B3B44" opacity="1.000000" stroke="none" 
	d="
M614.266724,489.999756 
	C614.266479,503.162659 614.372864,515.826477 614.251831,528.488220 
	C613.753296,580.624695 566.134644,620.120178 515.092651,609.582703 
	C482.003693,602.751526 457.515686,579.948303 450.347626,546.414612 
	C447.467621,532.941528 448.542999,518.584045 448.194519,504.619690 
	C447.855682,491.040466 446.854645,492.925018 459.689880,492.766479 
	C470.016022,492.638947 480.342590,492.539795 490.669220,492.462585 
	C497.545624,492.411163 497.587738,492.687622 497.842926,499.304779 
	C498.335449,512.074890 498.315887,524.938232 500.000793,537.563843 
	C501.166687,546.300476 505.390320,554.293640 513.534180,559.360046 
	C527.666809,568.152222 552.986206,565.727783 561.307495,545.272888 
	C564.654358,537.045837 565.959106,528.652344 565.963257,519.936523 
	C565.980652,483.614014 565.958496,447.291504 565.939575,410.968994 
	C565.936096,404.311462 565.911133,404.519287 572.480103,404.542206 
	C584.306641,404.583435 596.137634,404.476898 607.959778,404.165405 
	C612.681274,404.040985 614.358521,405.632996 614.322876,410.527924 
	C614.131042,436.850586 614.254333,463.175568 614.266724,489.999756 
M494.418396,597.205750 
	C500.803986,599.139587 507.187439,601.080444 513.576050,603.004150 
	C516.546997,603.898743 519.538086,605.524902 522.502258,605.485229 
	C529.772522,605.388184 537.115112,605.004395 544.269226,603.793945 
	C549.531799,602.903503 554.596680,600.666199 559.642334,598.746887 
	C562.153442,597.791687 564.295105,595.816895 566.827209,594.974243 
	C574.035583,592.575500 579.817871,588.910461 581.182373,582.325195 
	C583.901917,580.286133 585.713379,578.913269 587.540955,577.562134 
	C589.132080,576.385742 590.891357,575.389404 592.302551,574.029480 
	C593.870789,572.518127 596.264404,570.714844 596.309509,568.986694 
	C596.445557,563.776794 596.166016,558.814636 602.412354,556.811340 
	C602.625793,556.742920 602.710205,556.244873 602.837646,555.939941 
	C606.757812,546.567627 610.371826,537.313721 609.210144,526.625549 
	C608.297119,518.225037 609.122314,509.644806 609.007812,501.146667 
	C608.734314,480.853455 608.224854,460.562469 608.093811,440.268738 
	C608.038147,431.645142 608.728699,423.018158 609.003418,414.390259 
	C609.103699,411.238525 608.321777,408.866730 604.308594,408.924774 
	C594.977539,409.059723 585.643005,409.010651 576.310486,408.949158 
	C573.457581,408.930359 572.016541,409.955872 571.933716,412.998688 
	C571.700928,421.553497 570.701843,430.132965 571.114746,438.648895 
	C571.693237,450.578400 569.988831,462.402466 570.711853,474.372192 
	C571.563293,488.468140 572.928284,502.757843 569.237793,516.779724 
	C569.003479,517.670105 569.123047,518.810852 569.475281,519.672729 
	C571.710938,525.142700 571.040161,530.407654 568.857666,535.729492 
	C567.932678,537.985046 567.854614,540.591797 566.904114,542.832031 
	C564.386719,548.764832 561.978638,554.809387 558.686951,560.306396 
	C557.753052,561.866028 553.929260,561.678284 551.441956,562.334290 
	C550.639954,562.545776 549.648010,562.674133 549.126465,563.212280 
	C544.374451,568.115723 538.326599,568.411560 532.162720,567.925903 
	C526.158813,567.452759 520.007141,567.283569 514.254395,565.737671 
	C510.306915,564.677002 506.870209,561.580688 503.326141,559.213257 
	C501.689270,558.119751 499.481476,556.845642 499.005707,555.221802 
	C496.423615,546.408508 493.676544,537.561829 492.211639,528.527954 
	C490.957855,520.796204 491.474701,512.789062 490.970825,504.918945 
	C490.726807,501.107788 489.799377,497.746613 484.605865,497.884430 
	C475.694946,498.120850 466.757019,497.688232 457.871277,498.219574 
	C456.148346,498.322540 453.550415,501.359924 453.195129,503.368958 
	C452.248657,508.720734 451.754425,514.282898 452.080292,519.701355 
	C452.698578,529.981995 453.813629,540.247864 455.189880,550.456787 
	C455.514709,552.866211 457.236755,556.385315 459.116180,557.018433 
	C463.095306,558.358704 463.014374,561.391174 463.810028,564.193909 
	C464.670319,567.224426 465.224915,570.340881 466.050415,573.382568 
	C466.343964,574.464111 466.772797,575.849670 467.600494,576.387085 
	C471.290131,578.782959 475.235321,580.786865 478.911438,583.201477 
	C481.370758,584.816772 484.635559,586.447754 485.584503,588.845520 
	C487.235657,593.017822 490.176331,595.063843 494.418396,597.205750 
z"/>
<path fill="#2D3140" opacity="1.000000" stroke="none" 
	d="
M612.538696,382.436859 
	C598.035645,382.667908 583.882935,382.698486 569.731934,382.866669 
	C566.762390,382.901978 565.982117,381.426117 565.984009,378.872772 
	C565.994263,364.879028 566.002014,350.885162 565.952271,336.891571 
	C565.941345,333.817688 567.489624,332.869781 570.335022,332.882263 
	C583.494263,332.940063 596.653870,332.916595 609.813354,332.889954 
	C612.518921,332.884491 614.275452,333.617737 614.260071,336.824982 
	C614.191467,351.150909 614.249817,365.477448 614.168823,379.803253 
	C614.164124,380.633026 613.335083,381.458099 612.538696,382.436859 
z"/>
<path fill="#F0EAD8" opacity="1.000000" stroke="none" 
	d="
M836.852661,729.406616 
	C834.606995,738.447083 829.501526,742.449219 819.802124,742.687622 
	C811.990417,742.879578 804.168457,742.631104 796.354431,742.768982 
	C793.081909,742.826782 791.903198,741.443237 791.930725,738.314209 
	C792.008118,729.500854 792.024902,720.685608 791.921143,711.872803 
	C791.882324,708.573364 792.968750,706.965332 796.528931,707.120789 
	C805.314209,707.504333 814.216431,706.919983 822.871765,708.141479 
	C833.981201,709.709351 837.018188,714.158325 837.080872,725.492798 
	C837.087341,726.654297 836.977234,727.816528 836.852661,729.406616 
z"/>
<path fill="#E9E6D6" opacity="1.000000" stroke="none" 
	d="
M616.566406,759.537964 
	C621.864990,744.512024 627.008911,729.846313 632.636414,713.801636 
	C633.900452,716.104248 634.627930,717.082092 635.010986,718.180115 
	C639.941284,732.312927 644.719727,746.499878 649.778809,760.585999 
	C651.290100,764.793945 650.051819,765.994324 645.902954,765.939941 
	C637.575439,765.830750 629.244385,765.963257 620.915039,766.022522 
	C614.633240,766.067261 614.464844,765.856689 616.566406,759.537964 
z"/>
<path fill="#BC7D37" opacity="1.000000" stroke="none" 
	d="
M689.767822,550.010437 
	C689.558838,538.671509 689.349792,527.332520 689.529053,515.421509 
	C690.536682,513.898499 691.677551,512.956726 691.694397,511.995239 
	C691.857300,502.691376 691.831543,493.384186 691.890869,483.634186 
	C692.269775,474.792297 692.960388,466.389526 692.845398,457.997772 
	C692.767578,452.312622 691.557495,446.643005 690.892090,440.510376 
	C690.731018,438.215027 690.531616,436.375763 690.332275,434.536469 
	C690.268433,433.852264 690.204590,433.168091 690.597656,432.169739 
	C691.583252,431.513428 692.568176,431.178589 692.573792,430.828003 
	C692.719055,421.789673 692.815491,412.748962 692.687805,403.711975 
	C692.680298,403.181763 690.721313,402.679108 689.670532,402.163666 
	C689.685059,400.357605 689.699585,398.551514 690.141663,396.325806 
	C691.344971,394.970367 692.120667,394.034576 692.896362,393.098755 
	C691.853149,392.446960 690.809875,391.795135 689.766663,391.143341 
	C689.748657,390.645233 689.730713,390.147095 689.934448,389.233093 
	C690.022949,388.579865 689.889771,388.342499 689.756592,388.105164 
	C689.740906,387.617279 689.725220,387.129364 690.156250,386.221008 
	C693.498230,380.594696 692.244995,370.163940 688.530823,366.003723 
	C684.963806,362.008301 681.717773,357.727417 678.292847,353.603394 
	C677.257751,352.356873 676.096558,351.214996 674.952148,349.663574 
	C672.346741,347.357544 673.422302,342.415833 668.701355,342.047668 
	C668.462646,342.044678 667.985352,342.031982 667.934326,341.692810 
	C665.818054,338.604004 663.426147,336.037323 661.760498,333.063812 
	C658.939514,328.027863 655.918945,323.490540 650.101929,321.414490 
	C648.782532,320.943604 647.845642,319.143127 646.948914,317.809296 
	C645.750000,316.025940 645.067017,313.812714 643.628052,312.288727 
	C638.624329,306.989471 633.489746,301.803406 628.214966,296.773560 
	C623.004639,291.805206 623.004028,283.138947 614.589111,280.004639 
	C609.831848,278.232758 606.768494,272.335114 602.329834,269.148926 
	C598.944519,266.718933 594.326965,264.620483 590.411499,267.985962 
	C587.147339,270.791595 584.771729,274.631134 581.761719,278.017212 
	C581.520874,278.021637 581.039062,278.027924 580.693848,278.074493 
	C575.901062,282.873199 571.438049,287.610901 567.015320,292.385986 
	C565.628357,293.883484 564.349854,295.481506 563.010376,297.020355 
	C562.998962,297.007202 563.022766,297.024536 562.663391,297.055389 
	C560.641235,298.130035 557.852844,298.896484 557.515259,300.266785 
	C556.214966,305.544281 551.792053,308.039154 548.636108,311.659332 
	C545.175781,315.628754 541.984070,319.846771 538.351318,323.646790 
	C535.541992,326.585480 532.162354,328.970062 529.166626,331.741943 
	C526.173706,334.511200 523.372314,337.486298 520.433044,340.315216 
	C516.999146,343.620300 512.833801,346.437195 512.895874,352.232666 
	C512.583923,352.706146 512.330505,352.894653 511.672333,353.047913 
	C505.435852,358.175140 499.431976,363.170166 496.900909,371.237671 
	C496.584991,371.710602 496.330292,371.899841 495.638977,372.059387 
	C494.172424,373.508667 492.298065,374.839111 492.154022,376.336121 
	C491.733093,380.710907 492.001434,385.152130 492.001221,389.567322 
	C492.000122,410.875305 491.843231,432.185211 492.108917,453.489868 
	C492.175262,458.807892 489.773834,460.859467 485.161224,460.946838 
	C476.414520,461.112549 467.661957,460.974670 458.911926,460.942139 
	C458.424561,460.940308 457.942352,460.715057 457.450287,460.652802 
	C454.159729,460.236450 452.833527,458.747314 452.892609,455.085541 
	C453.138702,439.837494 453.109344,424.581909 452.950745,409.331512 
	C452.857666,400.379669 452.159760,391.434052 452.067810,382.482208 
	C452.016968,377.532166 452.640564,372.574066 452.986511,367.621460 
	C453.303925,363.077698 453.656708,358.536469 454.357697,353.952332 
	C456.486725,353.079041 458.721954,352.673035 459.930878,351.337799 
	C463.863708,346.993958 467.253235,342.159698 471.165802,337.795593 
	C476.041046,332.357697 481.211151,327.182861 486.306152,321.945221 
	C486.853912,321.382141 487.709534,321.018372 488.489014,320.797119 
	C493.487000,319.378418 494.964630,315.680298 494.980103,310.989929 
	C494.992401,310.992218 494.987335,310.967804 495.352844,310.974091 
	C496.360077,310.842773 497.157776,310.903168 497.620453,310.538452 
	C507.415314,302.817596 514.404480,292.002563 525.271362,285.453949 
	C525.401123,285.375732 525.454468,285.179291 525.561096,285.052917 
	C531.184387,278.389069 536.836426,271.749084 542.410278,265.044128 
	C543.425903,263.822418 544.123535,262.336304 544.974854,260.976562 
	C544.981812,260.980896 544.971191,260.963470 545.317383,260.935638 
	C550.867065,255.680252 556.064819,250.446884 561.275696,245.226593 
	C567.912537,238.577667 575.008484,232.318939 581.057190,225.173111 
	C585.675659,219.716995 590.504456,216.235855 597.831726,216.818390 
	C600.908813,217.063004 604.019470,217.084991 607.105896,216.969315 
	C613.225708,216.739960 619.340454,216.065140 625.455200,216.089081 
	C633.024109,216.118713 640.589111,216.731628 648.159668,216.969330 
	C651.405945,217.071259 654.662598,216.789459 657.913635,216.809814 
	C665.482056,216.857224 673.057922,216.805664 680.614990,217.145294 
	C684.809753,217.333847 688.983826,214.304031 693.312317,218.333771 
	C698.418762,223.087830 704.465271,226.832245 710.128540,231.326645 
	C710.774719,232.079727 711.396423,232.520538 712.069336,233.302917 
	C714.882080,236.413055 717.642273,239.183060 720.405945,241.949692 
	C722.238403,243.784134 725.140869,245.341629 725.692627,247.501282 
	C726.900879,252.230713 730.142517,254.348495 733.853333,256.505188 
	C735.621460,257.532867 737.073486,259.116638 738.632996,260.489075 
	C744.107422,265.306610 749.566223,270.141846 755.020386,274.976349 
	C755.009827,274.982361 755.024841,274.971741 755.054688,275.323853 
	C758.297241,281.082581 761.741516,286.096039 767.428284,289.513519 
	C769.661804,290.855774 770.553223,294.444214 772.031494,297.023682 
	C772.590027,297.998322 772.821716,299.418060 773.643738,299.940887 
	C778.040771,302.737274 782.577271,305.314301 787.272705,308.075439 
	C787.740967,308.370667 787.931213,308.613251 788.072205,309.275635 
	C788.781006,311.108765 789.247437,312.742401 790.197388,314.015259 
	C792.910095,317.650299 795.364380,321.851257 801.009399,320.989380 
	C801.002441,320.998779 801.021118,320.977905 801.018433,321.350342 
	C802.280151,323.783539 803.746399,325.749146 804.770813,327.922974 
	C807.759705,334.264679 813.170288,337.853729 819.290283,340.952942 
	C819.520325,340.943451 819.980713,340.936829 820.028931,341.315765 
	C821.468933,348.868134 825.777649,352.969208 833.013550,353.988159 
	C833.008362,353.994629 833.019531,353.981659 833.021240,354.366699 
	C836.053467,363.719543 836.937866,373.036407 836.950684,382.391052 
	C837.038757,446.722778 837.002625,511.054688 836.980103,575.386536 
	C836.979370,577.535095 836.693542,579.683105 836.550781,581.832092 
	C836.348267,584.880615 836.235779,587.937744 835.935547,590.976501 
	C835.627197,594.098206 835.375732,597.262512 834.604614,600.281799 
	C834.327271,601.367676 832.634644,602.820557 831.546631,602.856567 
	C822.176208,603.166504 812.796448,603.275452 803.419434,603.278564 
	C791.263367,603.282593 779.107483,603.088135 766.951294,603.062256 
	C748.698059,603.023376 730.444763,603.044189 712.191467,603.070374 
	C708.703918,603.075439 705.077881,602.643127 701.760559,603.436523 
	C696.270874,604.749451 694.775146,604.504761 693.895508,598.703125 
	C693.216003,594.220886 694.014893,589.535767 693.751404,584.964172 
	C693.351990,578.036011 692.705444,571.116150 691.915588,564.221191 
	C691.747437,562.753052 690.513794,561.406860 689.771057,560.004517 
	C689.736450,559.556396 689.701904,559.108337 690.077637,558.284729 
	C692.720886,556.331299 692.109985,555.455933 689.771057,555.007568 
	C689.736694,554.559082 689.702393,554.110596 690.078552,553.286133 
	C692.720520,551.328796 692.109741,550.454346 689.767822,550.010437 
M778.937683,359.347992 
	C779.031067,352.026672 773.837646,347.588409 769.386292,343.118866 
	C761.633972,335.334778 752.903992,328.510895 745.299316,320.596893 
	C736.632385,311.577515 728.757751,301.797546 720.502075,292.380280 
	C719.993835,291.800476 719.118164,291.560303 718.493164,291.062134 
	C715.709534,288.843323 712.726501,286.812439 710.248657,284.288422 
	C707.264221,281.248322 704.830627,277.675476 701.956360,274.517334 
	C697.205872,269.297668 692.319946,264.199951 687.440796,259.098907 
	C683.361633,254.834244 678.888184,251.888000 672.438660,253.572311 
	C669.962219,254.219040 667.175171,253.724060 664.531189,253.672791 
	C655.229126,253.492401 645.916809,252.925064 636.630432,253.214249 
	C631.302673,253.380157 627.478638,257.888306 629.383789,261.125549 
	C632.500671,266.421692 636.543030,271.178619 640.279724,276.098663 
	C640.854736,276.855774 641.950012,277.193298 642.689026,277.854156 
	C647.660339,282.300049 653.544678,286.111267 657.309692,291.421112 
	C661.937866,297.948364 666.314819,304.323700 673.139709,308.767365 
	C674.719360,309.795868 675.541016,311.921661 676.921021,313.338501 
	C679.437073,315.921631 682.123474,318.338043 684.713196,320.850464 
	C687.158081,323.222351 689.641724,325.560547 691.979431,328.035339 
	C695.374268,331.629364 698.570862,335.412201 701.999573,338.972382 
	C708.383911,345.601440 716.228333,351.296265 720.924988,358.940552 
	C725.276062,366.022400 731.199402,367.050079 737.608032,367.845581 
	C745.084412,368.773621 752.735962,369.077148 760.253235,368.642853 
	C766.462280,368.284088 772.923035,367.460663 778.403442,362.491852 
	C778.557739,361.719543 778.712036,360.947205 778.937683,359.347992 
M793.690796,562.879333 
	C800.039551,557.570862 800.166199,556.158569 794.945435,548.342041 
	C794.949036,547.911743 794.952576,547.481384 794.901917,546.415161 
	C794.296753,545.937927 793.691589,545.460693 793.055908,544.098694 
	C793.065186,541.736450 793.074463,539.374146 793.837402,536.791565 
	C795.325623,532.747009 796.616333,528.714966 793.060730,524.052246 
	C793.072937,490.039673 793.085205,456.027100 793.790771,421.838196 
	C794.843689,419.295624 796.335938,416.835388 796.831909,414.188477 
	C797.382996,411.248016 797.731934,407.928192 796.908691,405.146484 
	C795.427490,400.141785 787.407959,397.277435 781.944885,397.991241 
	C777.195618,398.611755 772.377930,398.739807 767.585388,398.990173 
	C760.134460,399.379364 752.661865,399.491241 745.237000,400.153656 
	C743.092590,400.344940 741.080444,402.019867 738.354004,403.304749 
	C730.849243,406.110870 727.319702,410.031799 729.323547,414.691345 
	C731.791931,420.430908 731.746826,426.012543 731.586121,432.076263 
	C731.205750,446.436340 731.924561,460.822113 731.998047,475.198486 
	C732.101868,495.505463 732.441833,515.826111 731.822449,536.114685 
	C731.568787,544.421570 731.006775,552.544189 732.958557,560.724243 
	C733.858704,564.497192 736.630371,566.395081 740.513428,566.385681 
	C753.109497,566.355164 765.882629,565.612610 778.232727,567.485168 
	C784.893188,568.495056 788.899719,567.212280 793.690796,562.879333 
z"/>
<path fill="#B08046" opacity="1.000000" stroke="none" 
	d="
M689.726318,560.470947 
	C690.513794,561.406860 691.747437,562.753052 691.915588,564.221191 
	C692.705444,571.116150 693.351990,578.036011 693.751404,584.964172 
	C694.014893,589.535767 693.216003,594.220886 693.895508,598.703125 
	C694.775146,604.504761 696.270874,604.749451 701.760559,603.436523 
	C705.077881,602.643127 708.703918,603.075439 712.191467,603.070374 
	C730.444763,603.044189 748.698059,603.023376 766.951294,603.062256 
	C779.107483,603.088135 791.263367,603.282593 803.419434,603.278564 
	C812.796448,603.275452 822.176208,603.166504 831.546631,602.856567 
	C832.634644,602.820557 834.327271,601.367676 834.604614,600.281799 
	C835.375732,597.262512 835.627197,594.098206 835.935547,590.976501 
	C836.235779,587.937744 836.348267,584.880615 836.550781,581.832092 
	C836.693542,579.683105 836.979370,577.535095 836.980103,575.386536 
	C837.002625,511.054688 837.038757,446.722778 836.950684,382.391052 
	C836.937866,373.036407 836.053467,363.719543 833.372559,354.435852 
	C838.977539,358.509552 839.971008,364.576019 839.975037,370.850281 
	C840.022278,444.823669 840.005554,518.797119 839.997437,592.770508 
	C839.997131,595.555420 839.674377,598.361572 839.918884,601.120789 
	C840.398132,606.527649 840.082275,607.003845 834.398499,607.004761 
	C797.744995,607.010681 761.091431,607.038208 724.438049,606.968628 
	C720.310547,606.960815 716.188416,606.221497 712.056274,606.117126 
	C704.476440,605.925720 696.890991,605.954895 689.307922,605.892090 
	C689.432495,590.907166 689.557068,575.922302 689.726318,560.470947 
z"/>
<path fill="#BE9662" opacity="1.000000" stroke="none" 
	d="
M689.270508,606.288696 
	C696.890991,605.954895 704.476440,605.925720 712.056274,606.117126 
	C716.188416,606.221497 720.310547,606.960815 724.438049,606.968628 
	C761.091431,607.038208 797.744995,607.010681 834.398499,607.004761 
	C840.082275,607.003845 840.398132,606.527649 839.918884,601.120789 
	C839.674377,598.361572 839.997131,595.555420 839.997437,592.770508 
	C840.005554,518.797119 840.022278,444.823669 839.975037,370.850281 
	C839.971008,364.576019 838.977539,358.509552 833.370789,354.050842 
	C833.019531,353.981659 833.008362,353.994629 832.973572,353.645569 
	C828.619446,349.176605 824.300049,345.056702 819.980713,340.936829 
	C819.980713,340.936829 819.520325,340.943451 819.236694,340.609558 
	C817.858887,338.642090 816.981995,336.796356 815.631348,335.413269 
	C810.848755,330.516022 805.904236,325.776947 801.021118,320.977905 
	C801.021118,320.977905 801.002441,320.998779 800.861572,320.689606 
	C799.380127,318.732635 798.237061,316.856842 796.655334,315.487671 
	C793.930908,313.129456 790.933472,311.086609 788.050598,308.911407 
	C787.931213,308.613251 787.740967,308.370667 787.255859,307.712952 
	C785.782654,305.411194 784.692322,303.443085 783.253784,301.775360 
	C779.240479,297.122833 775.083008,292.594696 771.078125,287.935425 
	C771.173828,287.853394 771.371826,287.697388 771.371826,287.697388 
	C774.196594,290.241791 777.160461,292.649139 779.823669,295.352722 
	C798.152649,313.959747 816.352112,332.694855 834.749695,351.233582 
	C839.648926,356.170380 842.183838,361.267761 842.155884,368.683014 
	C841.863403,446.159149 841.993652,523.636841 842.000488,601.114075 
	C842.001221,608.982117 841.982117,608.986450 834.012329,608.987244 
	C787.859131,608.991516 741.705933,609.024048 695.553040,608.898376 
	C693.444397,608.892639 691.339661,607.455627 689.270508,606.288696 
z"/>
<path fill="#B08046" opacity="1.000000" stroke="none" 
	d="
M453.993927,353.994110 
	C453.656708,358.536469 453.303925,363.077698 452.986511,367.621460 
	C452.640564,372.574066 452.016968,377.532166 452.067810,382.482208 
	C452.159760,391.434052 452.857666,400.379669 452.950745,409.331512 
	C453.109344,424.581909 453.138702,439.837494 452.892609,455.085541 
	C452.833527,458.747314 454.159729,460.236450 457.450287,460.652802 
	C457.942352,460.715057 458.424561,460.940308 458.911926,460.942139 
	C467.661957,460.974670 476.414520,461.112549 485.161224,460.946838 
	C489.773834,460.859467 492.175262,458.807892 492.108917,453.489868 
	C491.843231,432.185211 492.000122,410.875305 492.001221,389.567322 
	C492.001434,385.152130 491.733093,380.710907 492.154022,376.336121 
	C492.298065,374.839111 494.172424,373.508667 495.577820,372.472076 
	C495.600525,375.126526 495.047241,377.410370 495.041748,379.695557 
	C494.980591,405.173981 495.008362,430.652588 495.000305,456.131165 
	C494.998932,460.404541 492.340881,463.877625 488.401215,463.947388 
	C478.084686,464.130096 467.761841,464.067749 457.443268,463.950470 
	C454.820709,463.920685 452.204590,463.321686 449.585510,462.984253 
	C449.383545,432.740265 449.135803,402.496429 449.021606,372.252106 
	C449.000916,366.780212 449.528107,361.306244 450.223480,355.383789 
	C451.731934,354.593170 452.819244,354.252045 453.928406,353.931763 
	C453.950226,353.952576 453.993927,353.994110 453.993927,353.994110 
z"/>
<path fill="#B08046" opacity="1.000000" stroke="none" 
	d="
M710.104187,231.014389 
	C704.465271,226.832245 698.418762,223.087830 693.312317,218.333771 
	C688.983826,214.304031 684.809753,217.333847 680.614990,217.145294 
	C673.057922,216.805664 665.482056,216.857224 657.913635,216.809814 
	C654.662598,216.789459 651.405945,217.071259 648.159668,216.969330 
	C640.589111,216.731628 633.024109,216.118713 625.455200,216.089081 
	C619.340454,216.065140 613.225708,216.739960 607.105896,216.969315 
	C604.019470,217.084991 600.908813,217.063004 597.831726,216.818390 
	C590.504456,216.235855 585.675659,219.716995 581.057190,225.173111 
	C575.008484,232.318939 567.912537,238.577667 561.275696,245.226593 
	C556.064819,250.446884 550.867065,255.680252 545.359131,260.587128 
	C546.683716,258.019012 548.372192,255.811600 549.921021,253.510239 
	C550.972412,251.947891 551.827942,250.253723 552.771057,248.618515 
	C552.771057,248.618515 552.800415,248.285217 553.220459,248.109467 
	C554.421143,246.937119 555.201843,245.940521 555.982605,244.943909 
	C555.982605,244.943924 556.277649,244.794205 556.820923,244.824982 
	C564.512695,237.498703 571.664490,230.144867 578.788147,222.763901 
	C578.945862,222.600464 578.783447,222.128036 578.770325,221.799744 
	C578.770325,221.799744 578.974365,221.914459 579.257690,221.875595 
	C580.347168,220.535065 581.153198,219.233414 581.959290,217.931763 
	C582.439148,217.356125 582.919006,216.780487 584.051331,216.051056 
	C587.377075,215.258270 590.067261,214.000854 592.721008,214.073700 
	C628.853027,215.065353 665.062988,211.619980 701.134216,215.925842 
	C701.704773,216.384262 702.275269,216.842667 702.982300,217.893188 
	C704.465210,219.602753 705.811707,220.720215 707.158203,221.837677 
	C707.158203,221.837692 706.992249,221.958191 707.056519,222.272354 
	C708.239441,224.138351 709.630188,225.572189 710.373718,227.286728 
	C710.813049,228.299789 710.228333,229.756943 710.104187,231.014389 
z"/>
<path fill="#B08046" opacity="1.000000" stroke="none" 
	d="
M582.002625,278.012756 
	C584.771729,274.631134 587.147339,270.791595 590.411499,267.985962 
	C594.326965,264.620483 598.944519,266.718933 602.329834,269.148926 
	C606.768494,272.335114 609.831848,278.232758 614.589111,280.004639 
	C623.004028,283.138947 623.004639,291.805206 628.214966,296.773560 
	C633.489746,301.803406 638.624329,306.989471 643.628052,312.288727 
	C645.067017,313.812714 645.750000,316.025940 646.948914,317.809296 
	C647.845642,319.143127 648.782532,320.943604 650.101929,321.414490 
	C655.918945,323.490540 658.939514,328.027863 661.760498,333.063812 
	C663.426147,336.037323 665.818054,338.604004 667.557739,341.691406 
	C665.920959,341.333405 664.597839,340.659149 663.301697,339.936401 
	C661.724670,339.056976 660.170349,338.136688 658.606201,337.234100 
	C658.086853,336.764252 657.567505,336.294403 656.977051,335.162415 
	C656.722351,333.066101 657.078796,330.991699 656.264587,330.304779 
	C651.980774,326.690247 647.401245,323.426208 642.924377,320.040497 
	C642.621582,319.923859 642.372803,319.735840 642.084106,318.894653 
	C639.587769,315.619263 637.185242,312.925690 634.782715,310.232147 
	C634.782715,310.232147 634.952454,310.069153 634.926514,309.739075 
	C634.718506,308.465881 634.856689,307.229034 634.303711,306.626099 
	C629.902954,301.827820 625.485229,297.033447 620.836426,292.478973 
	C618.079285,289.777802 614.894409,287.513275 611.901855,285.052399 
	C611.591187,284.950500 611.342712,284.765259 611.072693,283.910706 
	C608.175537,279.571777 605.675476,275.522156 602.472595,272.137634 
	C598.032043,267.445099 596.474609,268.119263 591.830383,272.364349 
	C589.148315,274.815948 587.153931,279.495483 582.002625,278.012756 
z"/>
<path fill="#B9925C" opacity="1.000000" stroke="none" 
	d="
M449.401001,463.275513 
	C452.204590,463.321686 454.820709,463.920685 457.443268,463.950470 
	C467.761841,464.067749 478.084686,464.130096 488.401215,463.947388 
	C492.340881,463.877625 494.998932,460.404541 495.000305,456.131165 
	C495.008362,430.652588 494.980591,405.173981 495.041748,379.695557 
	C495.047241,377.410370 495.600525,375.126526 495.960571,372.429321 
	C496.330292,371.899841 496.584991,371.710602 497.226135,371.230164 
	C498.099823,370.996002 498.533264,370.980591 499.050720,371.060181 
	C499.134735,371.155151 499.296692,371.350342 499.296692,371.350342 
	C498.558746,375.041351 497.207458,378.728058 497.181366,382.424103 
	C496.998474,408.337219 497.095428,434.252228 497.087769,460.166656 
	C497.085876,466.528625 496.731171,466.902954 490.278168,466.914581 
	C478.151672,466.936371 466.024933,466.913300 453.898468,466.867706 
	C451.634308,466.859161 448.881256,467.349060 449.401001,463.275513 
z"/>
<path fill="#B9925C" opacity="1.000000" stroke="none" 
	d="
M512.021912,353.008911 
	C512.330505,352.894653 512.583923,352.706146 513.250854,352.192017 
	C516.777527,348.872192 519.796082,345.763214 522.902893,342.744934 
	C527.476807,338.301361 532.214111,334.022156 536.700073,329.492828 
	C543.462219,322.665253 549.978638,315.593353 556.777039,308.803009 
	C560.125122,305.458862 563.399902,302.260895 563.022766,297.024536 
	C563.022766,297.024536 562.998962,297.007202 563.262329,297.200928 
	C566.451721,299.816589 567.509827,296.459045 569.265137,295.460907 
	C571.617737,294.123108 573.823486,292.526978 576.092285,291.041687 
	C572.278809,295.545349 568.643738,300.216064 564.614380,304.517487 
	C556.459412,313.223114 548.097290,321.734833 539.808105,330.314484 
	C531.880798,338.519623 523.961121,346.732391 515.993225,354.898010 
	C510.677490,360.345703 505.283051,365.716644 499.610260,371.236145 
	C499.296692,371.350342 499.134735,371.155151 499.102966,370.721313 
	C500.312439,368.764679 501.616455,367.288300 502.782745,365.710144 
	C505.894104,361.499786 508.946228,357.245636 512.021912,353.008911 
z"/>
<path fill="#B9925C" opacity="1.000000" stroke="none" 
	d="
M701.064209,215.558258 
	C665.062988,211.619980 628.853027,215.065353 592.721008,214.073700 
	C590.067261,214.000854 587.377075,215.258270 584.307617,215.925522 
	C585.939697,214.630966 587.960266,212.168518 589.997253,212.154922 
	C624.918335,211.921860 659.841675,211.936722 694.763306,212.131149 
	C696.845886,212.142731 698.917480,214.125275 701.064209,215.558258 
z"/>
<path fill="#B08046" opacity="1.000000" stroke="none" 
	d="
M755.031006,274.970337 
	C749.566223,270.141846 744.107422,265.306610 738.632996,260.489075 
	C737.073486,259.116638 735.621460,257.532867 733.853333,256.505188 
	C730.142517,254.348495 726.900879,252.230713 725.692627,247.501282 
	C725.140869,245.341629 722.238403,243.784134 720.405945,241.949692 
	C717.642273,239.183060 714.882080,236.413055 712.385010,233.162415 
	C714.321960,233.167816 716.124451,233.408478 717.633972,234.204590 
	C719.569092,235.225204 721.268555,236.692657 723.069580,237.967590 
	C723.069580,237.967590 723.218689,238.278519 723.190674,238.826553 
	C725.452332,241.243896 727.741943,243.113190 730.031555,244.982468 
	C731.040527,246.008667 732.049500,247.034897 733.104004,248.733765 
	C734.069275,250.728958 734.829407,252.206406 735.936584,253.346985 
	C740.435486,257.981628 745.175537,262.388824 749.549500,267.135284 
	C751.690125,269.458160 753.223022,272.340942 755.031006,274.970337 
z"/>
<path fill="#B9925C" opacity="1.000000" stroke="none" 
	d="
M552.449219,248.734543 
	C551.827942,250.253723 550.972412,251.947891 549.921021,253.510239 
	C548.372192,255.811600 546.683716,258.019012 545.012939,260.614960 
	C544.971191,260.963470 544.981812,260.980896 544.612610,260.982727 
	C542.739441,261.906067 540.943176,262.556091 539.787354,263.800903 
	C536.531982,267.306702 533.727295,271.237701 530.410217,274.678345 
	C518.678101,286.847626 506.806213,298.882172 494.987335,310.967804 
	C494.987335,310.967804 494.992401,310.992218 494.682953,311.137085 
	C491.817352,313.126251 489.261169,314.970551 486.704987,316.814850 
	C490.674133,312.191071 494.420624,307.351685 498.651611,302.981445 
	C515.611938,285.462799 532.719055,268.086273 549.789856,250.674866 
	C550.475708,249.975296 551.344055,249.454590 552.449219,248.734543 
z"/>
<path fill="#B08046" opacity="1.000000" stroke="none" 
	d="
M486.519745,316.916504 
	C489.261169,314.970551 491.817352,313.126251 494.670654,311.134827 
	C494.964630,315.680298 493.487000,319.378418 488.489014,320.797119 
	C487.709534,321.018372 486.853912,321.382141 486.306152,321.945221 
	C481.211151,327.182861 476.041046,332.357697 471.165802,337.795593 
	C467.253235,342.159698 463.863708,346.993958 459.930878,351.337799 
	C458.721954,352.673035 456.486725,353.079041 454.357697,353.952332 
	C453.993927,353.994110 453.950226,353.952576 453.952087,353.539917 
	C453.956757,352.070862 453.959503,351.014465 453.962280,349.958069 
	C453.962280,349.958069 454.000000,350.000000 454.352448,349.994537 
	C458.030548,349.345459 459.983521,347.502777 459.979523,343.950653 
	C459.979523,343.950653 460.273102,343.795135 460.816162,343.820251 
	C468.481781,336.647095 475.611725,329.456055 482.695709,322.219971 
	C482.939514,321.970886 482.722321,321.270508 482.720001,320.780457 
	C482.720001,320.780457 482.796295,320.798553 483.158417,320.813293 
	C484.281250,319.774506 485.041931,318.720978 485.802612,317.667480 
	C485.915924,317.398590 486.093201,317.182159 486.519745,316.916504 
z"/>
<path fill="#B9925C" opacity="1.000000" stroke="none" 
	d="
M674.993164,350.025208 
	C676.096558,351.214996 677.257751,352.356873 678.292847,353.603394 
	C681.717773,357.727417 684.963806,362.008301 688.530823,366.003723 
	C692.244995,370.163940 693.498230,380.594696 690.186279,385.855896 
	C689.741333,385.414673 689.622864,384.903992 689.698181,384.423706 
	C691.102417,375.472870 686.932007,369.069824 680.704712,363.206879 
	C676.404785,359.158539 672.844238,354.324799 668.949402,349.445038 
	C668.945496,349.048035 669.074707,348.928925 669.442200,349.006683 
	C671.537537,349.398010 673.265320,349.711609 674.993164,350.025208 
z"/>
<path fill="#B9925C" opacity="1.000000" stroke="none" 
	d="
M690.853821,440.966431 
	C691.557495,446.643005 692.767578,452.312622 692.845398,457.997772 
	C692.960388,466.389526 692.269775,474.792297 691.619812,483.755554 
	C690.752625,484.540192 690.187866,484.759644 689.623047,484.979095 
	C689.628967,470.614777 689.634827,456.250488 689.952759,441.426941 
	C690.461060,440.967316 690.657410,440.966888 690.853821,440.966431 
z"/>
<path fill="#B9925C" opacity="1.000000" stroke="none" 
	d="
M581.761719,278.017212 
	C587.153931,279.495483 589.148315,274.815948 591.830383,272.364349 
	C596.474609,268.119263 598.032043,267.445099 602.472595,272.137634 
	C605.675476,275.522156 608.175537,279.571777 610.974060,283.696564 
	C607.539246,280.480896 604.008728,276.990936 600.736816,273.273285 
	C598.369263,270.583221 596.523071,270.870728 594.172546,273.302734 
	C588.763245,278.899597 583.178040,284.326508 577.342896,289.582153 
	C577.857666,287.631317 578.263306,285.336792 579.622009,284.335327 
	C582.208374,282.428955 581.835205,280.405853 581.039062,278.027924 
	C581.039062,278.027924 581.520874,278.021637 581.761719,278.017212 
z"/>
<path fill="#BE9662" opacity="1.000000" stroke="none" 
	d="
M689.425659,485.331909 
	C690.187866,484.759644 690.752625,484.540192 691.588501,484.199341 
	C691.831543,493.384186 691.857300,502.691376 691.694397,511.995239 
	C691.677551,512.956726 690.536682,513.898499 689.588074,514.962280 
	C689.248657,505.278290 689.238525,495.481537 689.425659,485.331909 
z"/>
<path fill="#BE9662" opacity="1.000000" stroke="none" 
	d="
M689.526672,402.528198 
	C690.721313,402.679108 692.680298,403.181763 692.687805,403.711975 
	C692.815491,412.748962 692.719055,421.789673 692.573792,430.828003 
	C692.568176,431.178589 691.583252,431.513428 690.580322,431.825500 
	C689.864990,422.161163 689.623901,412.526978 689.526672,402.528198 
z"/>
<path fill="#B08046" opacity="1.000000" stroke="none" 
	d="
M580.693848,278.074493 
	C581.835205,280.405853 582.208374,282.428955 579.622009,284.335327 
	C578.263306,285.336792 577.857666,287.631317 577.034546,289.720215 
	C576.940979,290.398621 576.759521,290.643097 576.297668,290.936829 
	C573.823486,292.526978 571.617737,294.123108 569.265137,295.460907 
	C567.509827,296.459045 566.451721,299.816589 563.273682,297.214050 
	C564.349854,295.481506 565.628357,293.883484 567.015320,292.385986 
	C571.438049,287.610901 575.901062,282.873199 580.693848,278.074493 
z"/>
<path fill="#BE9662" opacity="1.000000" stroke="none" 
	d="
M755.020386,274.976349 
	C753.223022,272.340942 751.690125,269.458160 749.549500,267.135284 
	C745.175537,262.388824 740.435486,257.981628 735.936584,253.346985 
	C734.829407,252.206406 734.069275,250.728958 733.195312,249.034164 
	C739.996033,255.132141 746.823853,261.528717 753.471130,268.107758 
	C756.243164,270.851379 758.630920,273.983307 761.176636,277.376282 
	C761.159912,277.813843 760.992371,278.007996 760.652161,277.959290 
	C758.549561,276.930969 756.787231,275.951355 755.024841,274.971741 
	C755.024841,274.971741 755.009827,274.982361 755.020386,274.976349 
z"/>
<path fill="#B9925C" opacity="1.000000" stroke="none" 
	d="
M611.955444,285.391266 
	C614.894409,287.513275 618.079285,289.777802 620.836426,292.478973 
	C625.485229,297.033447 629.902954,301.827820 634.303711,306.626099 
	C634.856689,307.229034 634.718506,308.465881 634.830078,309.806458 
	C631.402893,306.886597 627.916199,303.689026 624.721130,300.222687 
	C620.367310,295.499207 616.235779,290.570709 611.955444,285.391266 
z"/>
<path fill="#B9925C" opacity="1.000000" stroke="none" 
	d="
M578.436401,221.862061 
	C578.783447,222.128036 578.945862,222.600464 578.788147,222.763901 
	C571.664490,230.144867 564.512695,237.498703 556.985718,244.810165 
	C563.772278,237.151169 570.937378,229.537766 578.436401,221.862061 
z"/>
<path fill="#B9925C" opacity="1.000000" stroke="none" 
	d="
M482.398499,320.848633 
	C482.722321,321.270508 482.939514,321.970886 482.695709,322.219971 
	C475.611725,329.456055 468.481781,336.647095 460.981323,343.802582 
	C467.761261,336.145477 474.919128,328.531158 482.398499,320.848633 
z"/>
<path fill="#BE9662" opacity="1.000000" stroke="none" 
	d="
M723.029907,237.625351 
	C721.268555,236.692657 719.569092,235.225204 717.633972,234.204590 
	C716.124451,233.408478 714.321960,233.167816 712.333923,232.820862 
	C711.396423,232.520538 710.774719,232.079727 710.128540,231.326645 
	C710.228333,229.756943 710.813049,228.299789 710.373718,227.286728 
	C709.630188,225.572189 708.239441,224.138351 707.141602,222.217880 
	C712.438354,226.993866 717.714294,232.138474 723.029907,237.625351 
z"/>
<path fill="#B9925C" opacity="1.000000" stroke="none" 
	d="
M642.968750,320.382874 
	C647.401245,323.426208 651.980774,326.690247 656.264587,330.304779 
	C657.078796,330.991699 656.722351,333.066101 656.839355,334.937134 
	C652.186218,330.491028 647.599670,325.608124 642.968750,320.382874 
z"/>
<path fill="#B9925C" opacity="1.000000" stroke="none" 
	d="
M658.687988,337.575562 
	C660.170349,338.136688 661.724670,339.056976 663.301697,339.936401 
	C664.597839,340.659149 665.920959,341.333405 667.608765,342.030579 
	C667.985352,342.031982 668.462646,342.044678 668.714111,342.476898 
	C669.001892,344.915710 669.038269,346.922333 669.074707,348.928925 
	C669.074707,348.928925 668.945496,349.048035 668.879822,349.107971 
	C665.466064,345.417633 662.117920,341.667297 658.687988,337.575562 
z"/>
<path fill="#BE9662" opacity="1.000000" stroke="none" 
	d="
M761.240479,277.714111 
	C764.605835,280.758240 767.890625,283.902039 771.273621,287.371613 
	C771.371826,287.697388 771.173828,287.853394 770.738770,287.884766 
	C767.199890,284.613434 764.096130,281.310730 760.992371,278.007996 
	C760.992371,278.007996 761.159912,277.813843 761.240479,277.714111 
z"/>
<path fill="#B9925C" opacity="1.000000" stroke="none" 
	d="
M634.804138,310.577271 
	C637.185242,312.925690 639.587769,315.619263 641.979736,318.682678 
	C639.587952,316.342468 637.206787,313.632416 634.804138,310.577271 
z"/>
<path fill="#BE9662" opacity="1.000000" stroke="none" 
	d="
M729.991699,244.638702 
	C727.741943,243.113190 725.452332,241.243896 723.217590,238.996857 
	C725.498962,240.511063 727.725403,242.402985 729.991699,244.638702 
z"/>
<path fill="#BE9662" opacity="1.000000" stroke="none" 
	d="
M689.734741,391.533752 
	C690.809875,391.795135 691.853149,392.446960 692.896362,393.098755 
	C692.120667,394.034576 691.344971,394.970367 690.162842,395.874390 
	C689.738525,394.536469 689.720703,393.230347 689.734741,391.533752 
z"/>
<path fill="#B9925C" opacity="1.000000" stroke="none" 
	d="
M459.670258,344.071503 
	C459.983521,347.502777 458.030548,349.345459 454.331512,349.975677 
	C455.759094,348.038971 457.560028,346.115662 459.670258,344.071503 
z"/>
<path fill="#B9925C" opacity="1.000000" stroke="none" 
	d="
M453.655762,350.090576 
	C453.959503,351.014465 453.956757,352.070862 453.930267,353.519104 
	C452.819244,354.252045 451.731934,354.593170 450.298584,354.958191 
	C451.084808,353.395721 452.217041,351.809387 453.655762,350.090576 
z"/>
<path fill="#BE9662" opacity="1.000000" stroke="none" 
	d="
M690.892090,440.510376 
	C690.657410,440.966888 690.461060,440.967316 689.967651,440.955322 
	C689.708618,438.932800 689.746582,436.922729 690.058350,434.724548 
	C690.531616,436.375763 690.731018,438.215027 690.892090,440.510376 
z"/>
<path fill="#BE9662" opacity="1.000000" stroke="none" 
	d="
M707.112671,221.506500 
	C705.811707,220.720215 704.465210,219.602753 703.144104,218.116928 
	C704.468689,218.890808 705.767944,220.033066 707.112671,221.506500 
z"/>
<path fill="#B9925C" opacity="1.000000" stroke="none" 
	d="
M581.658447,218.063858 
	C581.153198,219.233414 580.347168,220.535065 579.165039,221.804077 
	C579.645203,220.579590 580.501465,219.387772 581.658447,218.063858 
z"/>
<path fill="#B9925C" opacity="1.000000" stroke="none" 
	d="
M485.487244,317.767761 
	C485.041931,318.720978 484.281250,319.774506 483.148438,320.775330 
	C483.574860,319.771118 484.373352,318.819580 485.487244,317.767761 
z"/>
<path fill="#B9925C" opacity="1.000000" stroke="none" 
	d="
M555.646118,244.984802 
	C555.201843,245.940521 554.421143,246.937119 553.292542,247.958527 
	C553.732971,246.997437 554.521240,246.011566 555.646118,244.984802 
z"/>
<path fill="#B08046" opacity="1.000000" stroke="none" 
	d="
M689.727173,555.379395 
	C692.109985,555.455933 692.720886,556.331299 690.129028,557.950684 
	C689.741089,557.245117 689.712158,556.498108 689.727173,555.379395 
z"/>
<path fill="#B08046" opacity="1.000000" stroke="none" 
	d="
M689.724854,550.382080 
	C692.109741,550.454346 692.720520,551.328796 690.130005,552.951721 
	C689.741333,552.246765 689.711609,551.500244 689.724854,550.382080 
z"/>
<path fill="#BE9662" opacity="1.000000" stroke="none" 
	d="
M689.734619,388.304565 
	C689.889771,388.342499 690.022949,388.579865 689.958008,388.859802 
	C689.759827,388.902435 689.712708,388.503967 689.734619,388.304565 
z"/>
<path fill="#23283E" opacity="1.000000" stroke="none" 
	d="
M494.076050,597.040649 
	C490.176331,595.063843 487.235657,593.017822 485.584503,588.845520 
	C484.635559,586.447754 481.370758,584.816772 478.911438,583.201477 
	C475.235321,580.786865 471.290131,578.782959 467.600494,576.387085 
	C466.772797,575.849670 466.343964,574.464111 466.050415,573.382568 
	C465.224915,570.340881 464.670319,567.224426 463.810028,564.193909 
	C463.014374,561.391174 463.095306,558.358704 459.116180,557.018433 
	C457.236755,556.385315 455.514709,552.866211 455.189880,550.456787 
	C453.813629,540.247864 452.698578,529.981995 452.080292,519.701355 
	C451.754425,514.282898 452.248657,508.720734 453.195129,503.368958 
	C453.550415,501.359924 456.148346,498.322540 457.871277,498.219574 
	C466.757019,497.688232 475.694946,498.120850 484.605865,497.884430 
	C489.799377,497.746613 490.726807,501.107788 490.970825,504.918945 
	C491.474701,512.789062 490.957855,520.796204 492.211639,528.527954 
	C493.676544,537.561829 496.423615,546.408508 499.005707,555.221802 
	C499.481476,556.845642 501.689270,558.119751 503.326141,559.213257 
	C506.870209,561.580688 510.306915,564.677002 514.254395,565.737671 
	C520.007141,567.283569 526.158813,567.452759 532.162720,567.925903 
	C538.326599,568.411560 544.374451,568.115723 549.126465,563.212280 
	C549.648010,562.674133 550.639954,562.545776 551.441956,562.334290 
	C553.929260,561.678284 557.753052,561.866028 558.686951,560.306396 
	C561.978638,554.809387 564.386719,548.764832 566.904114,542.832031 
	C567.854614,540.591797 567.932678,537.985046 568.857666,535.729492 
	C571.040161,530.407654 571.710938,525.142700 569.475281,519.672729 
	C569.123047,518.810852 569.003479,517.670105 569.237793,516.779724 
	C572.928284,502.757843 571.563293,488.468140 570.711853,474.372192 
	C569.988831,462.402466 571.693237,450.578400 571.114746,438.648895 
	C570.701843,430.132965 571.700928,421.553497 571.933716,412.998688 
	C572.016541,409.955872 573.457581,408.930359 576.310486,408.949158 
	C585.643005,409.010651 594.977539,409.059723 604.308594,408.924774 
	C608.321777,408.866730 609.103699,411.238525 609.003418,414.390259 
	C608.728699,423.018158 608.038147,431.645142 608.093811,440.268738 
	C608.224854,460.562469 608.734314,480.853455 609.007812,501.146667 
	C609.122314,509.644806 608.297119,518.225037 609.210144,526.625549 
	C610.371826,537.313721 606.757812,546.567627 602.837646,555.939941 
	C602.710205,556.244873 602.625793,556.742920 602.412354,556.811340 
	C596.166016,558.814636 596.445557,563.776794 596.309509,568.986694 
	C596.264404,570.714844 593.870789,572.518127 592.302551,574.029480 
	C590.891357,575.389404 589.132080,576.385742 587.540955,577.562134 
	C585.713379,578.913269 583.901917,580.286133 581.182373,582.325195 
	C579.817871,588.910461 574.035583,592.575500 566.827209,594.974243 
	C564.295105,595.816895 562.153442,597.791687 559.642334,598.746887 
	C554.596680,600.666199 549.531799,602.903503 544.269226,603.793945 
	C537.115112,605.004395 529.772522,605.388184 522.502258,605.485229 
	C519.538086,605.524902 516.546997,603.898743 513.576050,603.004150 
	C507.187439,601.080444 500.803986,599.139587 494.076050,597.040649 
z"/>
<path fill="#B9925C" opacity="1.000000" stroke="none" 
	d="
M793.083740,537.011902 
	C793.074463,539.374146 793.065186,541.736450 793.091431,544.858765 
	C793.736694,546.096191 794.346375,546.573669 794.956116,547.051086 
	C794.952576,547.481384 794.949036,547.911743 794.670776,548.963623 
	C793.937256,554.055969 793.478516,558.526733 793.019714,562.997559 
	C788.899719,567.212280 784.893188,568.495056 778.232727,567.485168 
	C765.882629,565.612610 753.109497,566.355164 740.513428,566.385681 
	C736.630371,566.395081 733.858704,564.497192 732.958557,560.724243 
	C731.006775,552.544189 731.568787,544.421570 731.822449,536.114685 
	C732.441833,515.826111 732.101868,495.505463 731.998047,475.198486 
	C731.924561,460.822113 731.205750,446.436340 731.586121,432.076263 
	C731.746826,426.012543 731.791931,420.430908 729.323547,414.691345 
	C727.319702,410.031799 730.849243,406.110870 739.079102,403.152588 
	C741.098389,402.726990 742.397339,402.196350 743.686096,402.220367 
	C754.979126,402.430725 766.272400,402.676880 777.561035,403.051483 
	C782.025757,403.199677 786.489807,403.597504 790.932861,404.078156 
	C793.399048,404.345001 795.233337,404.943329 794.439026,408.526398 
	C793.468018,412.906311 793.499451,417.508453 793.097412,422.014526 
	C793.085205,456.027100 793.072937,490.039673 793.050171,524.981079 
	C793.054321,529.610535 793.069031,533.311218 793.083740,537.011902 
M771.498413,562.164124 
	C776.329102,562.145935 781.159912,562.096924 785.990417,562.119812 
	C789.652283,562.137146 791.322266,560.685486 791.313843,556.723328 
	C791.211487,508.750122 791.196167,460.776581 791.286804,412.803375 
	C791.295166,408.362732 789.948181,406.569031 785.269836,406.647522 
	C771.114929,406.885071 756.952698,406.829407 742.795288,406.691467 
	C739.218140,406.656616 737.797852,407.656769 737.805725,411.485168 
	C737.905151,459.958099 737.893494,508.431396 737.809509,556.904419 
	C737.802856,560.740051 739.070129,562.280151 743.015564,562.202271 
	C752.173340,562.021606 761.337524,562.160583 771.498413,562.164124 
z"/>
<path fill="#B08046" opacity="1.000000" stroke="none" 
	d="
M777.943787,362.881195 
	C772.923035,367.460663 766.462280,368.284088 760.253235,368.642853 
	C752.735962,369.077148 745.084412,368.773621 737.608032,367.845581 
	C731.199402,367.050079 725.276062,366.022400 720.924988,358.940552 
	C716.228333,351.296265 708.383911,345.601440 701.999573,338.972382 
	C698.570862,335.412201 695.374268,331.629364 691.979431,328.035339 
	C689.641724,325.560547 687.158081,323.222351 684.713196,320.850464 
	C682.123474,318.338043 679.437073,315.921631 676.921021,313.338501 
	C675.541016,311.921661 674.719360,309.795868 673.139709,308.767365 
	C666.314819,304.323700 661.937866,297.948364 657.309692,291.421112 
	C653.544678,286.111267 647.660339,282.300049 642.689026,277.854156 
	C641.950012,277.193298 640.854736,276.855774 640.279724,276.098663 
	C636.543030,271.178619 632.500671,266.421692 629.383789,261.125549 
	C627.478638,257.888306 631.302673,253.380157 636.630432,253.214249 
	C645.916809,252.925064 655.229126,253.492401 664.531189,253.672791 
	C667.175171,253.724060 669.962219,254.219040 672.438660,253.572311 
	C678.888184,251.888000 683.361633,254.834244 687.440796,259.098907 
	C692.319946,264.199951 697.205872,269.297668 701.956360,274.517334 
	C704.830627,277.675476 707.264221,281.248322 710.248657,284.288422 
	C712.726501,286.812439 715.709534,288.843323 718.493164,291.062134 
	C719.118164,291.560303 719.993835,291.800476 720.502075,292.380280 
	C728.757751,301.797546 736.632385,311.577515 745.299316,320.596893 
	C752.903992,328.510895 761.633972,335.334778 769.386292,343.118866 
	C773.837646,347.588409 779.031067,352.026672 778.622437,359.581116 
	C771.639160,352.680878 765.063049,345.458710 758.280884,338.435638 
	C748.836182,328.655365 739.217590,319.043243 729.708435,309.324799 
	C713.247742,292.501770 696.826294,275.640320 680.332825,258.849518 
	C679.501282,258.002991 678.148865,257.183838 677.032593,257.175171 
	C663.710205,257.071686 650.386047,257.070862 637.064392,257.223602 
	C635.810120,257.237976 634.244446,258.232605 633.475098,259.260040 
	C633.143616,259.702728 634.264709,261.581451 635.083618,262.482635 
	C642.420288,270.556091 649.702026,278.686646 657.259521,286.550873 
	C670.721863,300.559662 684.395996,314.364594 697.922791,328.311859 
	C708.199768,338.908203 718.304016,349.673950 728.700623,360.150421 
	C730.240417,361.702057 732.958618,362.835876 735.150146,362.867249 
	C749.411865,363.071533 763.678650,362.917786 777.943787,362.881195 
z"/>
<path fill="#D0B281" opacity="1.000000" stroke="none" 
	d="
M778.173584,362.686523 
	C763.678650,362.917786 749.411865,363.071533 735.150146,362.867249 
	C732.958618,362.835876 730.240417,361.702057 728.700623,360.150421 
	C718.304016,349.673950 708.199768,338.908203 697.922791,328.311859 
	C684.395996,314.364594 670.721863,300.559662 657.259521,286.550873 
	C649.702026,278.686646 642.420288,270.556091 635.083618,262.482635 
	C634.264709,261.581451 633.143616,259.702728 633.475098,259.260040 
	C634.244446,258.232605 635.810120,257.237976 637.064392,257.223602 
	C650.386047,257.070862 663.710205,257.071686 677.032593,257.175171 
	C678.148865,257.183838 679.501282,258.002991 680.332825,258.849518 
	C696.826294,275.640320 713.247742,292.501770 729.708435,309.324799 
	C739.217590,319.043243 748.836182,328.655365 758.280884,338.435638 
	C765.063049,345.458710 771.639160,352.680878 778.586792,359.994568 
	C778.712036,360.947205 778.557739,361.719543 778.173584,362.686523 
M736.048279,361.064301 
	C747.996765,360.435211 760.104187,362.389984 773.413574,359.215698 
	C768.044739,353.337036 763.664185,348.288818 759.017578,343.498688 
	C743.509766,327.512024 727.904907,311.619415 712.340820,295.687347 
	C705.613647,288.801117 698.368774,282.336639 692.300537,274.911102 
	C683.956970,264.701355 674.890808,257.538055 660.614990,259.755310 
	C654.757141,260.665131 648.644897,259.913879 642.648926,259.975250 
	C641.237793,259.989716 639.829102,260.234833 637.831848,260.431732 
	C638.698792,261.773834 639.093628,262.654755 639.720337,263.315643 
	C653.202576,277.531921 666.675354,291.757538 680.222900,305.911469 
	C696.635681,323.058716 713.089111,340.167358 729.611389,357.208984 
	C731.150146,358.796082 733.309814,359.781158 736.048279,361.064301 
z"/>
<path fill="#B08046" opacity="1.000000" stroke="none" 
	d="
M793.444092,421.926361 
	C793.499451,417.508453 793.468018,412.906311 794.439026,408.526398 
	C795.233337,404.943329 793.399048,404.345001 790.932861,404.078156 
	C786.489807,403.597504 782.025757,403.199677 777.561035,403.051483 
	C766.272400,402.676880 754.979126,402.430725 743.686096,402.220367 
	C742.397339,402.196350 741.098389,402.726990 739.405884,403.007538 
	C741.080444,402.019867 743.092590,400.344940 745.237000,400.153656 
	C752.661865,399.491241 760.134460,399.379364 767.585388,398.990173 
	C772.377930,398.739807 777.195618,398.611755 781.944885,397.991241 
	C787.407959,397.277435 795.427490,400.141785 796.908691,405.146484 
	C797.731934,407.928192 797.382996,411.248016 796.831909,414.188477 
	C796.335938,416.835388 794.843689,419.295624 793.444092,421.926361 
z"/>
<path fill="#B08046" opacity="1.000000" stroke="none" 
	d="
M562.663391,297.055389 
	C563.399902,302.260895 560.125122,305.458862 556.777039,308.803009 
	C549.978638,315.593353 543.462219,322.665253 536.700073,329.492828 
	C532.214111,334.022156 527.476807,338.301361 522.902893,342.744934 
	C519.796082,345.763214 516.777527,348.872192 513.364624,351.981293 
	C512.833801,346.437195 516.999146,343.620300 520.433044,340.315216 
	C523.372314,337.486298 526.173706,334.511200 529.166626,331.741943 
	C532.162354,328.970062 535.541992,326.585480 538.351318,323.646790 
	C541.984070,319.846771 545.175781,315.628754 548.636108,311.659332 
	C551.792053,308.039154 556.214966,305.544281 557.515259,300.266785 
	C557.852844,298.896484 560.641235,298.130035 562.663391,297.055389 
z"/>
<path fill="#B08046" opacity="1.000000" stroke="none" 
	d="
M495.352844,310.974091 
	C506.806213,298.882172 518.678101,286.847626 530.410217,274.678345 
	C533.727295,271.237701 536.531982,267.306702 539.787354,263.800903 
	C540.943176,262.556091 542.739441,261.906067 544.605713,260.978394 
	C544.123535,262.336304 543.425903,263.822418 542.410278,265.044128 
	C536.836426,271.749084 531.184387,278.389069 525.561096,285.052917 
	C525.454468,285.179291 525.401123,285.375732 525.271362,285.453949 
	C514.404480,292.002563 507.415314,302.817596 497.620453,310.538452 
	C497.157776,310.903168 496.360077,310.842773 495.352844,310.974091 
z"/>
<path fill="#B08046" opacity="1.000000" stroke="none" 
	d="
M760.652161,277.959320 
	C764.096130,281.310730 767.199890,284.613434 770.643066,287.966797 
	C775.083008,292.594696 779.240479,297.122833 783.253784,301.775360 
	C784.692322,303.443085 785.782654,305.411194 787.048706,307.604675 
	C782.577271,305.314301 778.040771,302.737274 773.643738,299.940887 
	C772.821716,299.418060 772.590027,297.998322 772.031494,297.023682 
	C770.553223,294.444214 769.661804,290.855774 767.428284,289.513519 
	C761.741516,286.096039 758.297241,281.082581 755.054688,275.323853 
	C756.787231,275.951355 758.549561,276.930969 760.652161,277.959320 
z"/>
<path fill="#B08046" opacity="1.000000" stroke="none" 
	d="
M801.018433,321.350342 
	C805.904236,325.776947 810.848755,330.516022 815.631348,335.413269 
	C816.981995,336.796356 817.858887,338.642090 819.006714,340.619080 
	C813.170288,337.853729 807.759705,334.264679 804.770813,327.922974 
	C803.746399,325.749146 802.280151,323.783539 801.018433,321.350342 
z"/>
<path fill="#B08046" opacity="1.000000" stroke="none" 
	d="
M820.028931,341.315765 
	C824.300049,345.056702 828.619446,349.176605 832.978760,353.639099 
	C825.777649,352.969208 821.468933,348.868134 820.028931,341.315765 
z"/>
<path fill="#B08046" opacity="1.000000" stroke="none" 
	d="
M511.672333,353.047913 
	C508.946228,357.245636 505.894104,361.499786 502.782745,365.710144 
	C501.616455,367.288300 500.312439,368.764679 499.018951,370.626312 
	C498.533264,370.980591 498.099823,370.996002 497.341187,371.018921 
	C499.431976,363.170166 505.435852,358.175140 511.672333,353.047913 
z"/>
<path fill="#B08046" opacity="1.000000" stroke="none" 
	d="
M788.072205,309.275635 
	C790.933472,311.086609 793.930908,313.129456 796.655334,315.487671 
	C798.237061,316.856842 799.380127,318.732635 800.868469,320.680176 
	C795.364380,321.851257 792.910095,317.650299 790.197388,314.015259 
	C789.247437,312.742401 788.781006,311.108765 788.072205,309.275635 
z"/>
<path fill="#B08046" opacity="1.000000" stroke="none" 
	d="
M793.355225,562.938477 
	C793.478516,558.526733 793.937256,554.055969 794.666016,549.286377 
	C800.166199,556.158569 800.039551,557.570862 793.355225,562.938477 
z"/>
<path fill="#B08046" opacity="1.000000" stroke="none" 
	d="
M669.442139,349.006683 
	C669.038269,346.922333 669.001892,344.915710 668.952759,342.479889 
	C673.422302,342.415833 672.346741,347.357544 674.952148,349.663574 
	C673.265320,349.711609 671.537537,349.398010 669.442139,349.006683 
z"/>
<path fill="#B08046" opacity="1.000000" stroke="none" 
	d="
M793.460571,536.901733 
	C793.069031,533.311218 793.054321,529.610535 793.065369,525.448608 
	C796.616333,528.714966 795.325623,532.747009 793.460571,536.901733 
z"/>
<path fill="#B08046" opacity="1.000000" stroke="none" 
	d="
M794.929016,546.733154 
	C794.346375,546.573669 793.736694,546.096191 793.106689,545.301086 
	C793.691589,545.460693 794.296753,545.937927 794.929016,546.733154 
z"/>
<path fill="#FDF3D6" opacity="1.000000" stroke="none" 
	d="
M770.998779,562.166992 
	C761.337524,562.160583 752.173340,562.021606 743.015564,562.202271 
	C739.070129,562.280151 737.802856,560.740051 737.809509,556.904419 
	C737.893494,508.431396 737.905151,459.958099 737.805725,411.485168 
	C737.797852,407.656769 739.218140,406.656616 742.795288,406.691467 
	C756.952698,406.829407 771.114929,406.885071 785.269836,406.647522 
	C789.948181,406.569031 791.295166,408.362732 791.286804,412.803375 
	C791.196167,460.776581 791.211487,508.750122 791.313843,556.723328 
	C791.322266,560.685486 789.652283,562.137146 785.990417,562.119812 
	C781.159912,562.096924 776.329102,562.145935 770.998779,562.166992 
z"/>
<path fill="#FCF2D4" opacity="1.000000" stroke="none" 
	d="
M735.614746,361.055054 
	C733.309814,359.781158 731.150146,358.796082 729.611389,357.208984 
	C713.089111,340.167358 696.635681,323.058716 680.222900,305.911469 
	C666.675354,291.757538 653.202576,277.531921 639.720337,263.315643 
	C639.093628,262.654755 638.698792,261.773834 637.831848,260.431732 
	C639.829102,260.234833 641.237793,259.989716 642.648926,259.975250 
	C648.644897,259.913879 654.757141,260.665131 660.614990,259.755310 
	C674.890808,257.538055 683.956970,264.701355 692.300537,274.911102 
	C698.368774,282.336639 705.613647,288.801117 712.340820,295.687347 
	C727.904907,311.619415 743.509766,327.512024 759.017578,343.498688 
	C763.664185,348.288818 768.044739,353.337036 773.413574,359.215698 
	C760.104187,362.389984 747.996765,360.435211 735.614746,361.055054 
z"/>
</svg>